<svg xmlns="http://www.w3.org/2000/svg" viewBox="0 0 96 96" width="96" height="96" role="img" aria-label="Safe">
    <rect x="6" y="10" width="84" height="76" rx="7" fill="#263238"/>
    <rect x="13" y="17" width="70" height="62" rx="4" fill="#101a1f"/>
    <g fill="#ffca28">
        <circle cx="30" cy="66" r="7"/>
        <circle cx="44" cy="70" r="6"/>
        <circle cx="57" cy="66" r="7"/>
        <circle cx="37" cy="55" r="6"/>
        <circle cx="51" cy="56" r="6"/>
    </g>
    <g fill="#fff59d" opacity=".6">
        <circle cx="28" cy="64" r="2"/>
        <circle cx="55" cy="64" r="2"/>
        <circle cx="35" cy="53" r="1.8"/>
    </g>
    <g>
        <rect x="60" y="14" width="32" height="68" rx="6" fill="#546e7a" stroke="#263238" stroke-width="2"/>
        <rect x="65" y="20" width="22" height="56" rx="4" fill="#78909c"/>
        <circle cx="76" cy="48" r="9" fill="#b0bec5" stroke="#37474f" stroke-width="2"/>
        <circle cx="76" cy="48" r="2.5" fill="#eceff1"/>
    </g>
    <rect x="10" y="86" width="14" height="6" rx="2" fill="#263238"/>
    <rect x="72" y="86" width="14" height="6" rx="2" fill="#263238"/>
</svg>
